<svg width="1920" height="1080" viewBox="0 0 1920 1080" fill="none" xmlns="http://www.w3.org/2000/svg">
<g clip-path="url(#clip0_33_11)">
<rect width="1920" height="1080" fill="white"/>
<path d="M1531.7 1024.35V121.616H1600.51V1024.35H1531.7ZM1574.83 947.324C1522.8 947.324 1476.24 938.423 1435.16 920.622C1394.76 902.821 1362.93 876.803 1339.65 842.57C1316.37 808.337 1304.04 766.914 1302.68 718.303H1449.54C1450.22 739.528 1455.36 758.698 1464.94 775.815C1475.21 792.932 1489.59 806.625 1508.08 816.895C1526.56 826.48 1548.81 831.273 1574.83 831.273C1596.05 831.273 1614.88 828.192 1631.32 822.03C1647.75 815.183 1660.41 805.598 1669.31 793.274C1678.9 780.265 1683.69 764.176 1683.69 745.005C1683.69 724.465 1678.56 707.348 1668.29 693.655C1658.7 679.962 1645.01 668.322 1627.21 658.737C1609.41 648.467 1589.21 639.566 1566.61 632.035C1544.7 623.819 1521.77 615.603 1497.81 607.387C1439.61 587.532 1395.11 561.857 1364.3 530.362C1334.17 498.867 1319.11 457.445 1319.11 406.095C1319.11 364.33 1329.38 328.385 1349.92 298.26C1370.46 268.135 1399.21 244.856 1436.19 228.424C1473.16 211.992 1515.26 203.776 1562.51 203.776C1611.12 203.776 1653.91 212.334 1690.88 229.451C1727.85 245.883 1756.95 269.846 1778.18 301.341C1799.4 332.836 1810.7 369.808 1812.07 412.257H1663.15C1662.47 393.771 1657.67 377.681 1648.77 363.988C1640.56 350.295 1628.58 339.34 1612.83 331.124C1597.77 322.908 1579.97 318.8 1559.43 318.8C1541.62 318.115 1525.19 320.854 1510.13 327.016C1495.75 332.493 1484.45 341.052 1476.24 352.691C1468.02 363.646 1463.91 378.366 1463.91 396.852C1463.91 413.969 1467.68 428.347 1475.21 439.986C1483.43 451.625 1494.72 461.895 1509.1 470.796C1524.16 479.012 1541.62 487.228 1561.48 495.444C1582.02 502.975 1604.96 511.191 1630.29 520.092C1666.58 532.416 1699.78 547.136 1729.91 564.253C1760.03 580.685 1784 602.252 1801.8 628.954C1820.28 655.656 1829.53 690.232 1829.53 732.681C1829.53 771.022 1819.6 806.625 1799.74 839.489C1780.57 871.668 1752.16 897.686 1714.5 917.541C1676.85 937.396 1630.29 947.324 1574.83 947.324Z" fill="#B9D7F1"/>
<path d="M1858.82 595C1869.63 512.297 1931.83 447.003 1969 441L1940.34 1080H-114V751.189C-0.926216 825.666 310.126 963.282 616.475 963.282C884.068 963.282 982.726 926.175 1069.22 891.25C1208.42 835.044 1223.37 829.57 1429.48 912C1681.53 1012.81 1824.46 857.852 1858.82 595Z" fill="#B9D7F1"/>
<path d="M139.22 490V408.8H169.612C176.108 408.8 181.483 409.921 185.736 412.164C190.067 414.407 193.276 417.423 195.364 421.212C197.452 424.924 198.496 429.061 198.496 433.624C198.496 437.955 197.452 442.015 195.364 445.804C193.353 449.516 190.183 452.532 185.852 454.852C181.599 457.095 176.108 458.216 169.38 458.216H154.88V490H139.22ZM181.328 490L164.624 454.272H181.56L199.192 490H181.328ZM154.88 446.848H168.568C173.363 446.848 176.881 445.688 179.124 443.368C181.367 441.048 182.488 437.993 182.488 434.204C182.488 430.415 181.367 427.437 179.124 425.272C176.881 423.029 173.363 421.908 168.568 421.908H154.88V446.848ZM229.534 491.392C223.657 491.392 218.437 490.155 213.874 487.68C209.389 485.205 205.87 481.725 203.318 477.24C200.766 472.755 199.49 467.612 199.49 461.812C199.49 455.78 200.727 450.483 203.202 445.92C205.754 441.28 209.273 437.645 213.758 435.016C218.321 432.387 223.579 431.072 229.534 431.072C235.334 431.072 240.399 432.309 244.73 434.784C249.061 437.259 252.463 440.661 254.938 444.992C257.413 449.245 258.65 454.079 258.65 459.492C258.65 460.265 258.611 461.155 258.534 462.16C258.534 463.088 258.495 464.055 258.418 465.06H210.626V455.432H242.758C242.526 451.797 241.173 448.897 238.698 446.732C236.301 444.567 233.285 443.484 229.65 443.484C226.943 443.484 224.469 444.103 222.226 445.34C219.983 446.5 218.205 448.317 216.89 450.792C215.575 453.189 214.918 456.244 214.918 459.956V463.32C214.918 466.491 215.537 469.236 216.774 471.556C218.011 473.799 219.713 475.539 221.878 476.776C224.121 478.013 226.634 478.632 229.418 478.632C232.279 478.632 234.677 478.013 236.61 476.776C238.543 475.461 240.013 473.799 241.018 471.788H256.91C255.827 475.423 254.01 478.748 251.458 481.764C248.906 484.703 245.774 487.061 242.062 488.84C238.35 490.541 234.174 491.392 229.534 491.392ZM263.834 490V408.8H279.494V490H263.834ZM305.781 491.392C301.218 491.392 297.429 490.619 294.413 489.072C291.474 487.525 289.309 485.437 287.917 482.808C286.525 480.179 285.829 477.279 285.829 474.108C285.829 470.551 286.718 467.419 288.497 464.712C290.353 462.005 293.137 459.917 296.849 458.448C300.561 456.901 305.239 456.128 310.885 456.128H325.385C325.385 453.267 324.959 450.908 324.109 449.052C323.335 447.196 322.098 445.804 320.397 444.876C318.773 443.948 316.685 443.484 314.133 443.484C311.117 443.484 308.526 444.18 306.361 445.572C304.273 446.887 302.958 448.975 302.417 451.836H287.221C287.685 447.583 289.077 443.909 291.397 440.816C293.794 437.723 296.926 435.325 300.793 433.624C304.737 431.923 309.183 431.072 314.133 431.072C319.701 431.072 324.495 432 328.517 433.856C332.538 435.635 335.631 438.303 337.797 441.86C339.962 445.34 341.045 449.593 341.045 454.62V490H328.053L326.429 481.068H325.965C324.727 482.769 323.374 484.277 321.905 485.592C320.513 486.907 318.966 487.989 317.265 488.84C315.563 489.691 313.746 490.309 311.813 490.696C309.879 491.16 307.869 491.392 305.781 491.392ZM310.885 479.328C313.05 479.328 314.906 478.98 316.453 478.284C318.077 477.511 319.469 476.505 320.629 475.268C321.789 474.031 322.678 472.6 323.297 470.976C323.993 469.275 324.457 467.535 324.689 465.756H312.625C310.227 465.756 308.255 466.065 306.709 466.684C305.239 467.225 304.157 468.037 303.461 469.12C302.765 470.125 302.417 471.324 302.417 472.716C302.417 474.108 302.765 475.307 303.461 476.312C304.157 477.317 305.162 478.091 306.477 478.632C307.791 479.096 309.261 479.328 310.885 479.328ZM372.963 490C368.864 490 365.268 489.381 362.175 488.144C359.159 486.829 356.8 484.703 355.099 481.764C353.397 478.748 352.547 474.649 352.547 469.468V444.992H342.687V432.464H352.547L354.287 416.804H368.207V432.464H383.519V444.992H368.207V469.7C368.207 472.484 368.787 474.417 369.947 475.5C371.107 476.505 373.079 477.008 375.863 477.008H383.171V490H372.963ZM412.821 491.392C407.253 491.392 402.227 490.116 397.741 487.564C393.256 485.012 389.699 481.455 387.069 476.892C384.517 472.329 383.241 467.109 383.241 461.232C383.241 455.277 384.556 450.057 387.185 445.572C389.815 441.009 393.372 437.452 397.857 434.9C402.343 432.348 407.331 431.072 412.821 431.072C418.389 431.072 423.416 432.348 427.901 434.9C432.387 437.452 435.905 441.009 438.457 445.572C441.087 450.057 442.401 455.277 442.401 461.232C442.401 467.187 441.087 472.445 438.457 477.008C435.828 481.493 432.271 485.012 427.785 487.564C423.377 490.116 418.389 491.392 412.821 491.392ZM412.705 478.168C415.257 478.168 417.539 477.549 419.549 476.312C421.637 475.075 423.3 473.219 424.537 470.744C425.775 468.192 426.393 465.021 426.393 461.232C426.393 457.443 425.775 454.311 424.537 451.836C423.3 449.284 421.637 447.389 419.549 446.152C417.539 444.915 415.335 444.296 412.937 444.296C410.463 444.296 408.181 444.915 406.093 446.152C404.005 447.389 402.343 449.284 401.105 451.836C399.868 454.311 399.249 457.443 399.249 461.232C399.249 465.021 399.868 468.192 401.105 470.744C402.343 473.219 403.967 475.075 405.977 476.312C408.065 477.549 410.308 478.168 412.705 478.168ZM399.597 427.476V415.528L425.581 402.536H426.045V414.948L399.597 427.476ZM447.572 490V432.464H460.912L462.304 445.108H462.768C464.469 441.009 466.325 437.993 468.336 436.06C470.346 434.049 472.628 432.735 475.18 432.116C477.809 431.42 480.748 431.072 483.996 431.072V447.66H479.704C477.074 447.66 474.716 447.969 472.628 448.588C470.617 449.129 468.916 450.057 467.524 451.372C466.132 452.609 465.049 454.272 464.276 456.36C463.58 458.448 463.232 460.961 463.232 463.9V490H447.572ZM488.795 490V432.464H504.455V490H488.795ZM496.683 425.156C493.822 425.156 491.463 424.344 489.607 422.72C487.828 421.019 486.939 418.892 486.939 416.34C486.939 413.788 487.828 411.661 489.607 409.96C491.463 408.259 493.822 407.408 496.683 407.408C499.544 407.408 501.864 408.259 503.643 409.96C505.422 411.661 506.311 413.788 506.311 416.34C506.311 418.815 505.422 420.903 503.643 422.604C501.864 424.305 499.544 425.156 496.683 425.156ZM541.119 491.392C535.551 491.392 530.525 490.116 526.039 487.564C521.554 485.012 517.997 481.455 515.367 476.892C512.815 472.329 511.539 467.109 511.539 461.232C511.539 455.277 512.854 450.057 515.483 445.572C518.113 441.009 521.67 437.452 526.155 434.9C530.641 432.348 535.629 431.072 541.119 431.072C546.687 431.072 551.714 432.348 556.199 434.9C560.685 437.452 564.203 441.009 566.755 445.572C569.385 450.057 570.699 455.277 570.699 461.232C570.699 467.187 569.385 472.445 566.755 477.008C564.126 481.493 560.569 485.012 556.083 487.564C551.675 490.116 546.687 491.392 541.119 491.392ZM541.003 478.168C543.555 478.168 545.837 477.549 547.847 476.312C549.935 475.075 551.598 473.219 552.835 470.744C554.073 468.192 554.691 465.021 554.691 461.232C554.691 457.443 554.073 454.311 552.835 451.836C551.598 449.284 549.935 447.389 547.847 446.152C545.837 444.915 543.633 444.296 541.235 444.296C538.761 444.296 536.479 444.915 534.391 446.152C532.303 447.389 530.641 449.284 529.403 451.836C528.166 454.311 527.547 457.443 527.547 461.232C527.547 465.021 528.166 468.192 529.403 470.744C530.641 473.219 532.265 475.075 534.275 476.312C536.363 477.549 538.606 478.168 541.003 478.168ZM597.352 490V408.8H650.248V421.444H613.012V443.136H642.94V455.432H613.012V490H597.352ZM656.121 490V432.464H671.781V490H656.121ZM664.009 425.156C661.147 425.156 658.789 424.344 656.933 422.72C655.154 421.019 654.265 418.892 654.265 416.34C654.265 413.788 655.154 411.661 656.933 409.96C658.789 408.259 661.147 407.408 664.009 407.408C666.87 407.408 669.19 408.259 670.969 409.96C672.747 411.661 673.637 413.788 673.637 416.34C673.637 418.815 672.747 420.903 670.969 422.604C669.19 424.305 666.87 425.156 664.009 425.156ZM680.605 490V432.464H693.945L695.337 441.86H695.801C697.657 438.457 700.17 435.828 703.341 433.972C706.511 432.039 710.494 431.072 715.289 431.072C720.083 431.072 724.143 432.116 727.469 434.204C730.794 436.215 733.307 439.192 735.009 443.136C736.787 447.08 737.677 451.952 737.677 457.752V490H722.017V459.144C722.017 454.349 721.05 450.676 719.117 448.124C717.183 445.572 714.129 444.296 709.953 444.296C707.323 444.296 704.965 444.953 702.877 446.268C700.789 447.505 699.165 449.323 698.005 451.72C696.845 454.04 696.265 456.901 696.265 460.304V490H680.605ZM762.893 491.392C758.33 491.392 754.541 490.619 751.525 489.072C748.586 487.525 746.421 485.437 745.029 482.808C743.637 480.179 742.941 477.279 742.941 474.108C742.941 470.551 743.83 467.419 745.609 464.712C747.465 462.005 750.249 459.917 753.961 458.448C757.673 456.901 762.352 456.128 767.997 456.128H782.497C782.497 453.267 782.072 450.908 781.221 449.052C780.448 447.196 779.21 445.804 777.509 444.876C775.885 443.948 773.797 443.484 771.245 443.484C768.229 443.484 765.638 444.18 763.473 445.572C761.385 446.887 760.07 448.975 759.529 451.836H744.333C744.797 447.583 746.189 443.909 748.509 440.816C750.906 437.723 754.038 435.325 757.905 433.624C761.849 431.923 766.296 431.072 771.245 431.072C776.813 431.072 781.608 432 785.629 433.856C789.65 435.635 792.744 438.303 794.909 441.86C797.074 445.34 798.157 449.593 798.157 454.62V490H785.165L783.541 481.068H783.077C781.84 482.769 780.486 484.277 779.017 485.592C777.625 486.907 776.078 487.989 774.377 488.84C772.676 489.691 770.858 490.309 768.925 490.696C766.992 491.16 764.981 491.392 762.893 491.392ZM767.997 479.328C770.162 479.328 772.018 478.98 773.565 478.284C775.189 477.511 776.581 476.505 777.741 475.268C778.901 474.031 779.79 472.6 780.409 470.976C781.105 469.275 781.569 467.535 781.801 465.756H769.737C767.34 465.756 765.368 466.065 763.821 466.684C762.352 467.225 761.269 468.037 760.573 469.12C759.877 470.125 759.529 471.324 759.529 472.716C759.529 474.108 759.877 475.307 760.573 476.312C761.269 477.317 762.274 478.091 763.589 478.632C764.904 479.096 766.373 479.328 767.997 479.328ZM804.539 490V432.464H817.879L819.271 441.86H819.735C821.591 438.457 824.104 435.828 827.275 433.972C830.446 432.039 834.428 431.072 839.223 431.072C844.018 431.072 848.078 432.116 851.403 434.204C854.728 436.215 857.242 439.192 858.943 443.136C860.722 447.08 861.611 451.952 861.611 457.752V490H845.951V459.144C845.951 454.349 844.984 450.676 843.051 448.124C841.118 445.572 838.063 444.296 833.887 444.296C831.258 444.296 828.899 444.953 826.811 446.268C824.723 447.505 823.099 449.323 821.939 451.72C820.779 454.04 820.199 456.901 820.199 460.304V490H804.539ZM896.571 491.392C890.462 491.392 885.126 490.116 880.563 487.564C876.078 484.935 872.559 481.377 870.007 476.892C867.533 472.329 866.295 467.109 866.295 461.232C866.295 455.355 867.571 450.173 870.123 445.688C872.675 441.125 876.233 437.568 880.795 435.016C885.358 432.387 890.617 431.072 896.571 431.072C903.995 431.072 910.221 433.005 915.247 436.872C920.351 440.739 923.599 446.075 924.991 452.88H908.403C907.785 450.096 906.354 447.931 904.111 446.384C901.946 444.837 899.394 444.064 896.455 444.064C893.749 444.064 891.313 444.76 889.147 446.152C887.059 447.467 885.397 449.4 884.159 451.952C882.922 454.504 882.303 457.597 882.303 461.232C882.303 463.861 882.651 466.22 883.347 468.308C884.043 470.396 885.01 472.175 886.247 473.644C887.485 475.113 888.954 476.235 890.655 477.008C892.434 477.704 894.367 478.052 896.455 478.052C898.466 478.052 900.283 477.743 901.907 477.124C903.531 476.428 904.923 475.461 906.083 474.224C907.243 472.909 908.017 471.363 908.403 469.584H924.991C923.599 476.235 920.351 481.532 915.247 485.476C910.221 489.42 903.995 491.392 896.571 491.392ZM958.476 491.392C952.599 491.392 947.379 490.155 942.816 487.68C938.331 485.205 934.812 481.725 932.26 477.24C929.708 472.755 928.432 467.612 928.432 461.812C928.432 455.78 929.67 450.483 932.144 445.92C934.696 441.28 938.215 437.645 942.7 435.016C947.263 432.387 952.522 431.072 958.476 431.072C964.276 431.072 969.342 432.309 973.672 434.784C978.003 437.259 981.406 440.661 983.88 444.992C986.355 449.245 987.592 454.079 987.592 459.492C987.592 460.265 987.554 461.155 987.476 462.16C987.476 463.088 987.438 464.055 987.36 465.06H939.568V455.432H971.7C971.468 451.797 970.115 448.897 967.64 446.732C965.243 444.567 962.227 443.484 958.592 443.484C955.886 443.484 953.411 444.103 951.168 445.34C948.926 446.5 947.147 448.317 945.832 450.792C944.518 453.189 943.86 456.244 943.86 459.956V463.32C943.86 466.491 944.479 469.236 945.716 471.556C946.954 473.799 948.655 475.539 950.82 476.776C953.063 478.013 955.576 478.632 958.36 478.632C961.222 478.632 963.619 478.013 965.552 476.776C967.486 475.461 968.955 473.799 969.96 471.788H985.852C984.77 475.423 982.952 478.748 980.4 481.764C977.848 484.703 974.716 487.061 971.004 488.84C967.292 490.541 963.116 491.392 958.476 491.392ZM994.052 490V432.464H1009.71V490H994.052ZM1001.94 425.156C999.079 425.156 996.72 424.344 994.864 422.72C993.085 421.019 992.196 418.892 992.196 416.34C992.196 413.788 993.085 411.661 994.864 409.96C996.72 408.259 999.079 407.408 1001.94 407.408C1004.8 407.408 1007.12 408.259 1008.9 409.96C1010.68 411.661 1011.57 413.788 1011.57 416.34C1011.57 418.815 1010.68 420.903 1008.9 422.604C1007.12 424.305 1004.8 425.156 1001.94 425.156ZM1018.54 490V432.464H1031.88L1033.27 445.108H1033.73C1035.43 441.009 1037.29 437.993 1039.3 436.06C1041.31 434.049 1043.59 432.735 1046.14 432.116C1048.77 431.42 1051.71 431.072 1054.96 431.072V447.66H1050.67C1048.04 447.66 1045.68 447.969 1043.59 448.588C1041.58 449.129 1039.88 450.057 1038.49 451.372C1037.1 452.609 1036.01 454.272 1035.24 456.36C1034.54 458.448 1034.2 460.961 1034.2 463.9V490H1018.54ZM1084.84 491.392C1079.27 491.392 1074.24 490.116 1069.76 487.564C1065.27 485.012 1061.71 481.455 1059.09 476.892C1056.53 472.329 1055.26 467.109 1055.26 461.232C1055.26 455.277 1056.57 450.057 1059.2 445.572C1061.83 441.009 1065.39 437.452 1069.87 434.9C1074.36 432.348 1079.35 431.072 1084.84 431.072C1090.41 431.072 1095.43 432.348 1099.92 434.9C1104.4 437.452 1107.92 441.009 1110.47 445.572C1113.1 450.057 1114.42 455.277 1114.42 461.232C1114.42 467.187 1113.1 472.445 1110.47 477.008C1107.84 481.493 1104.29 485.012 1099.8 487.564C1095.39 490.116 1090.41 491.392 1084.84 491.392ZM1084.72 478.168C1087.27 478.168 1089.55 477.549 1091.57 476.312C1093.65 475.075 1095.32 473.219 1096.55 470.744C1097.79 468.192 1098.41 465.021 1098.41 461.232C1098.41 457.443 1097.79 454.311 1096.55 451.836C1095.32 449.284 1093.65 447.389 1091.57 446.152C1089.55 444.915 1087.35 444.296 1084.95 444.296C1082.48 444.296 1080.2 444.915 1078.11 446.152C1076.02 447.389 1074.36 449.284 1073.12 451.836C1071.88 454.311 1071.27 457.443 1071.27 461.232C1071.27 465.021 1071.88 468.192 1073.12 470.744C1074.36 473.219 1075.98 475.075 1077.99 476.312C1080.08 477.549 1082.32 478.168 1084.72 478.168Z" fill="#03477E"/>
<path d="M152.576 556L137.4 516.8H140.144L154.032 553.144L168.032 516.8H170.776L155.488 556H152.576ZM183.096 556.672C180.446 556.672 178.15 556.056 176.208 554.824C174.304 553.592 172.83 551.856 171.784 549.616C170.739 547.376 170.216 544.744 170.216 541.72C170.216 538.659 170.758 536.045 171.84 533.88C172.96 531.715 174.491 530.053 176.432 528.896C178.411 527.701 180.67 527.104 183.208 527.104C185.934 527.104 188.211 527.72 190.04 528.952C191.87 530.147 193.251 531.733 194.184 533.712C195.118 535.691 195.584 537.856 195.584 540.208C195.584 540.581 195.584 540.936 195.584 541.272C195.584 541.608 195.566 542 195.528 542.448H172.008V540.264H193.12C193.083 536.643 192.131 533.917 190.264 532.088C188.398 530.259 186.008 529.344 183.096 529.344C181.304 529.344 179.624 529.755 178.056 530.576C176.488 531.397 175.2 532.667 174.192 534.384C173.222 536.101 172.736 538.285 172.736 540.936V541.944C172.736 544.781 173.222 547.133 174.192 549C175.163 550.829 176.432 552.192 178 553.088C179.568 553.984 181.267 554.432 183.096 554.432C185.448 554.432 187.39 553.891 188.92 552.808C190.451 551.688 191.571 550.12 192.28 548.104H194.8C194.315 549.747 193.55 551.221 192.504 552.528C191.496 553.835 190.208 554.861 188.64 555.608C187.072 556.317 185.224 556.672 183.096 556.672ZM200.791 556V527.776H203.031L203.255 533.488C204.225 531.36 205.569 529.773 207.287 528.728C209.041 527.645 210.983 527.104 213.111 527.104C215.164 527.104 216.975 527.515 218.543 528.336C220.111 529.157 221.343 530.427 222.239 532.144C223.135 533.824 223.583 536.008 223.583 538.696V556H221.063V539.088C221.063 535.765 220.353 533.32 218.935 531.752C217.516 530.184 215.463 529.4 212.775 529.4C210.983 529.4 209.359 529.848 207.903 530.744C206.484 531.603 205.364 532.872 204.543 534.552C203.721 536.232 203.311 538.304 203.311 540.768V556H200.791ZM241.844 556.672C239.118 556.672 236.748 556.037 234.731 554.768C232.753 553.461 231.222 551.707 230.139 549.504C229.057 547.264 228.515 544.725 228.515 541.888C228.515 539.051 229.057 536.531 230.139 534.328C231.222 532.088 232.771 530.333 234.788 529.064C236.804 527.757 239.174 527.104 241.899 527.104C244.625 527.104 246.958 527.813 248.9 529.232C250.878 530.613 252.316 532.517 253.212 534.944V515.68H255.732V556H253.492L253.156 549.056C252.596 550.475 251.774 551.763 250.692 552.92C249.646 554.04 248.377 554.955 246.884 555.664C245.39 556.336 243.71 556.672 241.844 556.672ZM242.011 554.376C244.14 554.376 246.025 553.853 247.668 552.808C249.31 551.725 250.58 550.251 251.476 548.384C252.409 546.48 252.875 544.315 252.875 541.888C252.875 539.424 252.409 537.259 251.476 535.392C250.58 533.488 249.31 532.013 247.668 530.968C246.062 529.923 244.177 529.4 242.011 529.4C239.921 529.4 238.035 529.904 236.355 530.912C234.713 531.92 233.425 533.376 232.491 535.28C231.558 537.147 231.091 539.349 231.091 541.888C231.091 544.427 231.558 546.629 232.491 548.496C233.462 550.363 234.769 551.819 236.411 552.864C238.054 553.872 239.921 554.376 242.011 554.376ZM271.102 556.672C268.974 556.672 267.182 556.261 265.726 555.44C264.27 554.619 263.168 553.555 262.422 552.248C261.675 550.904 261.302 549.467 261.302 547.936C261.302 545.883 261.768 544.203 262.702 542.896C263.635 541.589 264.942 540.619 266.622 539.984C268.339 539.312 270.318 538.976 272.558 538.976H281.07C281.07 536.96 280.771 535.243 280.174 533.824C279.614 532.405 278.736 531.304 277.542 530.52C276.347 529.736 274.779 529.344 272.838 529.344C270.56 529.344 268.675 529.885 267.182 530.968C265.726 532.051 264.792 533.693 264.382 535.896H261.806C262.067 533.917 262.72 532.293 263.766 531.024C264.848 529.717 266.174 528.747 267.742 528.112C269.31 527.44 271.008 527.104 272.838 527.104C275.414 527.104 277.486 527.627 279.054 528.672C280.622 529.68 281.76 531.061 282.47 532.816C283.216 534.533 283.59 536.493 283.59 538.696V556H281.35L281.07 550.344C280.771 550.941 280.36 551.613 279.838 552.36C279.315 553.107 278.662 553.797 277.878 554.432C277.094 555.067 276.142 555.589 275.022 556C273.939 556.448 272.632 556.672 271.102 556.672ZM271.382 554.376C272.987 554.376 274.387 554.077 275.582 553.48C276.776 552.845 277.784 552.024 278.606 551.016C279.427 549.971 280.043 548.851 280.454 547.656C280.864 546.461 281.07 545.285 281.07 544.128V541.16H272.726C270.523 541.16 268.787 541.459 267.518 542.056C266.248 542.616 265.334 543.4 264.774 544.408C264.251 545.416 263.99 546.573 263.99 547.88C263.99 549.075 264.27 550.176 264.83 551.184C265.39 552.155 266.23 552.939 267.35 553.536C268.47 554.096 269.814 554.376 271.382 554.376ZM299.598 556.672C297.545 556.672 295.697 556.336 294.054 555.664C292.411 554.955 291.086 553.909 290.078 552.528C289.107 551.147 288.491 549.429 288.23 547.376H290.918C291.067 548.869 291.534 550.139 292.318 551.184C293.139 552.229 294.185 553.032 295.454 553.592C296.723 554.115 298.123 554.376 299.654 554.376C301.185 554.376 302.473 554.133 303.518 553.648C304.601 553.163 305.422 552.491 305.982 551.632C306.579 550.736 306.878 549.747 306.878 548.664C306.878 547.283 306.579 546.219 305.982 545.472C305.422 544.688 304.563 544.091 303.406 543.68C302.249 543.269 300.793 542.896 299.038 542.56C297.619 542.299 296.331 541.963 295.174 541.552C294.054 541.141 293.083 540.637 292.262 540.04C291.441 539.443 290.806 538.715 290.358 537.856C289.947 536.96 289.742 535.952 289.742 534.832C289.742 533.301 290.115 531.957 290.862 530.8C291.646 529.643 292.729 528.747 294.11 528.112C295.491 527.44 297.134 527.104 299.038 527.104C301.726 527.104 303.947 527.813 305.702 529.232C307.494 530.651 308.521 532.741 308.782 535.504H306.206C306.094 533.675 305.403 532.2 304.134 531.08C302.902 529.96 301.185 529.4 298.982 529.4C296.854 529.4 295.211 529.885 294.054 530.856C292.934 531.789 292.374 533.04 292.374 534.608C292.374 535.504 292.598 536.307 293.046 537.016C293.531 537.725 294.297 538.36 295.342 538.92C296.387 539.443 297.787 539.891 299.542 540.264C301.371 540.6 303.033 541.029 304.526 541.552C306.057 542.075 307.27 542.859 308.166 543.904C309.062 544.949 309.51 546.443 309.51 548.384C309.51 549.989 309.099 551.427 308.278 552.696C307.494 553.928 306.355 554.899 304.862 555.608C303.406 556.317 301.651 556.672 299.598 556.672ZM340.231 556.672C337.505 556.672 335.135 556.037 333.119 554.768C331.14 553.461 329.609 551.707 328.527 549.504C327.444 547.264 326.903 544.725 326.903 541.888C326.903 539.051 327.444 536.531 328.527 534.328C329.609 532.088 331.159 530.333 333.175 529.064C335.191 527.757 337.561 527.104 340.287 527.104C343.012 527.104 345.345 527.813 347.287 529.232C349.265 530.613 350.703 532.517 351.599 534.944V515.68H354.119V556H351.879L351.543 549.056C350.983 550.475 350.161 551.763 349.079 552.92C348.033 554.04 346.764 554.955 345.271 555.664C343.777 556.336 342.097 556.672 340.231 556.672ZM340.399 554.376C342.527 554.376 344.412 553.853 346.055 552.808C347.697 551.725 348.967 550.251 349.863 548.384C350.796 546.48 351.263 544.315 351.263 541.888C351.263 539.424 350.796 537.259 349.863 535.392C348.967 533.488 347.697 532.013 346.055 530.968C344.449 529.923 342.564 529.4 340.399 529.4C338.308 529.4 336.423 529.904 334.743 530.912C333.1 531.92 331.812 533.376 330.879 535.28C329.945 537.147 329.479 539.349 329.479 541.888C329.479 544.427 329.945 546.629 330.879 548.496C331.849 550.363 333.156 551.819 334.799 552.864C336.441 553.872 338.308 554.376 340.399 554.376ZM372.569 556.672C369.918 556.672 367.622 556.056 365.681 554.824C363.777 553.592 362.302 551.856 361.257 549.616C360.212 547.376 359.689 544.744 359.689 541.72C359.689 538.659 360.23 536.045 361.313 533.88C362.433 531.715 363.964 530.053 365.905 528.896C367.884 527.701 370.142 527.104 372.681 527.104C375.406 527.104 377.684 527.72 379.513 528.952C381.342 530.147 382.724 531.733 383.657 533.712C384.59 535.691 385.057 537.856 385.057 540.208C385.057 540.581 385.057 540.936 385.057 541.272C385.057 541.608 385.038 542 385.001 542.448H361.481V540.264H382.593C382.556 536.643 381.604 533.917 379.737 532.088C377.87 530.259 375.481 529.344 372.569 529.344C370.777 529.344 369.097 529.755 367.529 530.576C365.961 531.397 364.673 532.667 363.665 534.384C362.694 536.101 362.209 538.285 362.209 540.936V541.944C362.209 544.781 362.694 547.133 363.665 549C364.636 550.829 365.905 552.192 367.473 553.088C369.041 553.984 370.74 554.432 372.569 554.432C374.921 554.432 376.862 553.891 378.393 552.808C379.924 551.688 381.044 550.12 381.753 548.104H384.273C383.788 549.747 383.022 551.221 381.977 552.528C380.969 553.835 379.681 554.861 378.113 555.608C376.545 556.317 374.697 556.672 372.569 556.672ZM403.534 556V516.8H415.574C418.374 516.8 420.651 517.248 422.406 518.144C424.161 519.04 425.449 520.235 426.27 521.728C427.129 523.184 427.558 524.808 427.558 526.6C427.558 528.653 427.11 530.352 426.214 531.696C425.355 533.04 424.235 534.067 422.854 534.776C421.473 535.485 420.035 535.952 418.542 536.176L418.878 535.616C420.521 535.653 422.07 536.101 423.526 536.96C424.982 537.819 426.158 538.976 427.054 540.432C427.987 541.851 428.454 543.475 428.454 545.304C428.454 547.208 428.025 548.981 427.166 550.624C426.307 552.229 424.963 553.536 423.134 554.544C421.305 555.515 418.897 556 415.91 556H403.534ZM406.054 553.76H416.022C419.121 553.76 421.529 553.013 423.246 551.52C424.963 550.027 425.822 547.936 425.822 545.248C425.822 542.747 424.907 540.731 423.078 539.2C421.286 537.632 418.859 536.848 415.798 536.848H406.054V553.76ZM406.054 534.664H415.91C418.785 534.664 421.006 533.955 422.574 532.536C424.142 531.08 424.926 529.157 424.926 526.768C424.926 524.491 424.123 522.624 422.518 521.168C420.95 519.712 418.691 518.984 415.742 518.984H406.054V534.664ZM434.406 556V527.776H436.926V556H434.406ZM435.694 520.328C435.171 520.328 434.705 520.141 434.294 519.768C433.921 519.357 433.734 518.872 433.734 518.312C433.734 517.752 433.921 517.304 434.294 516.968C434.705 516.595 435.171 516.408 435.694 516.408C436.217 516.408 436.665 516.595 437.038 516.968C437.449 517.304 437.654 517.752 437.654 518.312C437.654 518.872 437.449 519.357 437.038 519.768C436.665 520.141 436.217 520.328 435.694 520.328ZM453.906 556.672C451.853 556.672 450.005 556.336 448.362 555.664C446.72 554.955 445.394 553.909 444.386 552.528C443.416 551.147 442.8 549.429 442.538 547.376H445.226C445.376 548.869 445.842 550.139 446.626 551.184C447.448 552.229 448.493 553.032 449.762 553.592C451.032 554.115 452.432 554.376 453.962 554.376C455.493 554.376 456.781 554.133 457.826 553.648C458.909 553.163 459.73 552.491 460.29 551.632C460.888 550.736 461.186 549.747 461.186 548.664C461.186 547.283 460.888 546.219 460.29 545.472C459.73 544.688 458.872 544.091 457.714 543.68C456.557 543.269 455.101 542.896 453.346 542.56C451.928 542.299 450.64 541.963 449.482 541.552C448.362 541.141 447.392 540.637 446.57 540.04C445.749 539.443 445.114 538.715 444.666 537.856C444.256 536.96 444.05 535.952 444.05 534.832C444.05 533.301 444.424 531.957 445.17 530.8C445.954 529.643 447.037 528.747 448.418 528.112C449.8 527.44 451.442 527.104 453.346 527.104C456.034 527.104 458.256 527.813 460.01 529.232C461.802 530.651 462.829 532.741 463.09 535.504H460.514C460.402 533.675 459.712 532.2 458.442 531.08C457.21 529.96 455.493 529.4 453.29 529.4C451.162 529.4 449.52 529.885 448.362 530.856C447.242 531.789 446.682 533.04 446.682 534.608C446.682 535.504 446.906 536.307 447.354 537.016C447.84 537.725 448.605 538.36 449.65 538.92C450.696 539.443 452.096 539.891 453.85 540.264C455.68 540.6 457.341 541.029 458.834 541.552C460.365 542.075 461.578 542.859 462.474 543.904C463.37 544.949 463.818 546.443 463.818 548.384C463.818 549.989 463.408 551.427 462.586 552.696C461.802 553.928 460.664 554.899 459.17 555.608C457.714 556.317 455.96 556.672 453.906 556.672ZM481.548 556.672C479.01 556.672 476.732 556.075 474.716 554.88C472.7 553.648 471.114 551.931 469.956 549.728C468.836 547.488 468.276 544.893 468.276 541.944C468.276 538.92 468.855 536.307 470.012 534.104C471.207 531.864 472.812 530.147 474.828 528.952C476.844 527.72 479.084 527.104 481.548 527.104C484.722 527.104 487.354 527.925 489.444 529.568C491.572 531.211 492.916 533.32 493.476 535.896H490.844C490.396 533.88 489.332 532.293 487.652 531.136C486.01 529.979 483.975 529.4 481.548 529.4C479.756 529.4 478.039 529.867 476.396 530.8C474.754 531.696 473.428 533.077 472.42 534.944C471.412 536.773 470.908 539.107 470.908 541.944C470.908 544.109 471.207 545.976 471.804 547.544C472.402 549.112 473.204 550.419 474.212 551.464C475.258 552.472 476.415 553.219 477.684 553.704C478.954 554.189 480.242 554.432 481.548 554.432C483.116 554.432 484.535 554.189 485.804 553.704C487.111 553.181 488.212 552.435 489.108 551.464C490.004 550.456 490.583 549.261 490.844 547.88H493.476C492.954 550.419 491.647 552.528 489.556 554.208C487.503 555.851 484.834 556.672 481.548 556.672ZM499.351 556V527.776H501.871V556H499.351ZM500.639 520.328C500.116 520.328 499.649 520.141 499.239 519.768C498.865 519.357 498.679 518.872 498.679 518.312C498.679 517.752 498.865 517.304 499.239 516.968C499.649 516.595 500.116 516.408 500.639 516.408C501.161 516.408 501.609 516.595 501.983 516.968C502.393 517.304 502.599 517.752 502.599 518.312C502.599 518.872 502.393 519.357 501.983 519.768C501.609 520.141 501.161 520.328 500.639 520.328ZM521.035 556.672C518.496 556.672 516.219 556.075 514.203 554.88C512.187 553.648 510.6 551.931 509.443 549.728C508.323 547.488 507.763 544.893 507.763 541.944C507.763 538.92 508.342 536.307 509.499 534.104C510.694 531.864 512.299 530.147 514.315 528.952C516.331 527.72 518.571 527.104 521.035 527.104C524.208 527.104 526.84 527.925 528.931 529.568C531.059 531.211 532.403 533.32 532.963 535.896H530.331C529.883 533.88 528.819 532.293 527.139 531.136C525.496 529.979 523.462 529.4 521.035 529.4C519.243 529.4 517.526 529.867 515.883 530.8C514.24 531.696 512.915 533.077 511.907 534.944C510.899 536.773 510.395 539.107 510.395 541.944C510.395 544.109 510.694 545.976 511.291 547.544C511.888 549.112 512.691 550.419 513.699 551.464C514.744 552.472 515.902 553.219 517.171 553.704C518.44 554.189 519.728 554.432 521.035 554.432C522.603 554.432 524.022 554.189 525.291 553.704C526.598 553.181 527.699 552.435 528.595 551.464C529.491 550.456 530.07 549.261 530.331 547.88H532.963C532.44 550.419 531.134 552.528 529.043 554.208C526.99 555.851 524.32 556.672 521.035 556.672ZM538.501 556V515.68H541.021V556H538.501ZM559.364 556.672C556.713 556.672 554.417 556.056 552.476 554.824C550.572 553.592 549.097 551.856 548.052 549.616C547.007 547.376 546.484 544.744 546.484 541.72C546.484 538.659 547.025 536.045 548.108 533.88C549.228 531.715 550.759 530.053 552.7 528.896C554.679 527.701 556.937 527.104 559.476 527.104C562.201 527.104 564.479 527.72 566.308 528.952C568.137 530.147 569.519 531.733 570.452 533.712C571.385 535.691 571.852 537.856 571.852 540.208C571.852 540.581 571.852 540.936 571.852 541.272C571.852 541.608 571.833 542 571.796 542.448H548.276V540.264H569.388C569.351 536.643 568.399 533.917 566.532 532.088C564.665 530.259 562.276 529.344 559.364 529.344C557.572 529.344 555.892 529.755 554.324 530.576C552.756 531.397 551.468 532.667 550.46 534.384C549.489 536.101 549.004 538.285 549.004 540.936V541.944C549.004 544.781 549.489 547.133 550.46 549C551.431 550.829 552.7 552.192 554.268 553.088C555.836 553.984 557.535 554.432 559.364 554.432C561.716 554.432 563.657 553.891 565.188 552.808C566.719 551.688 567.839 550.12 568.548 548.104H571.068C570.583 549.747 569.817 551.221 568.772 552.528C567.764 553.835 566.476 554.861 564.908 555.608C563.34 556.317 561.492 556.672 559.364 556.672ZM585.547 556C584.054 556 582.784 555.776 581.739 555.328C580.731 554.88 579.947 554.115 579.387 553.032C578.864 551.912 578.603 550.419 578.603 548.552V529.96H573.675V527.776H578.603L578.995 521.616H581.123V527.776H589.971V529.96H581.123V548.496C581.123 550.475 581.515 551.856 582.299 552.64C583.083 553.424 584.408 553.816 586.275 553.816H589.411V556H585.547ZM603.372 556.672C601.244 556.672 599.452 556.261 597.996 555.44C596.54 554.619 595.439 553.555 594.692 552.248C593.945 550.904 593.572 549.467 593.572 547.936C593.572 545.883 594.039 544.203 594.972 542.896C595.905 541.589 597.212 540.619 598.892 539.984C600.609 539.312 602.588 538.976 604.828 538.976H613.34C613.34 536.96 613.041 535.243 612.444 533.824C611.884 532.405 611.007 531.304 609.812 530.52C608.617 529.736 607.049 529.344 605.108 529.344C602.831 529.344 600.945 529.885 599.452 530.968C597.996 532.051 597.063 533.693 596.652 535.896H594.076C594.337 533.917 594.991 532.293 596.036 531.024C597.119 529.717 598.444 528.747 600.012 528.112C601.58 527.44 603.279 527.104 605.108 527.104C607.684 527.104 609.756 527.627 611.324 528.672C612.892 529.68 614.031 531.061 614.74 532.816C615.487 534.533 615.86 536.493 615.86 538.696V556H613.62L613.34 550.344C613.041 550.941 612.631 551.613 612.108 552.36C611.585 553.107 610.932 553.797 610.148 554.432C609.364 555.067 608.412 555.589 607.292 556C606.209 556.448 604.903 556.672 603.372 556.672ZM603.652 554.376C605.257 554.376 606.657 554.077 607.852 553.48C609.047 552.845 610.055 552.024 610.876 551.016C611.697 549.971 612.313 548.851 612.724 547.656C613.135 546.461 613.34 545.285 613.34 544.128V541.16H604.996C602.793 541.16 601.057 541.459 599.788 542.056C598.519 542.616 597.604 543.4 597.044 544.408C596.521 545.416 596.26 546.573 596.26 547.88C596.26 549.075 596.54 550.176 597.1 551.184C597.66 552.155 598.5 552.939 599.62 553.536C600.74 554.096 602.084 554.376 603.652 554.376ZM631.868 556.672C629.815 556.672 627.967 556.336 626.324 555.664C624.682 554.955 623.356 553.909 622.348 552.528C621.378 551.147 620.762 549.429 620.5 547.376H623.188C623.338 548.869 623.804 550.139 624.588 551.184C625.41 552.229 626.455 553.032 627.724 553.592C628.994 554.115 630.394 554.376 631.924 554.376C633.455 554.376 634.743 554.133 635.788 553.648C636.871 553.163 637.692 552.491 638.252 551.632C638.85 550.736 639.148 549.747 639.148 548.664C639.148 547.283 638.85 546.219 638.252 545.472C637.692 544.688 636.834 544.091 635.676 543.68C634.519 543.269 633.063 542.896 631.308 542.56C629.89 542.299 628.602 541.963 627.444 541.552C626.324 541.141 625.354 540.637 624.532 540.04C623.711 539.443 623.076 538.715 622.628 537.856C622.218 536.96 622.012 535.952 622.012 534.832C622.012 533.301 622.386 531.957 623.132 530.8C623.916 529.643 624.999 528.747 626.38 528.112C627.762 527.44 629.404 527.104 631.308 527.104C633.996 527.104 636.218 527.813 637.972 529.232C639.764 530.651 640.791 532.741 641.052 535.504H638.476C638.364 533.675 637.674 532.2 636.404 531.08C635.172 529.96 633.455 529.4 631.252 529.4C629.124 529.4 627.482 529.885 626.324 530.856C625.204 531.789 624.644 533.04 624.644 534.608C624.644 535.504 624.868 536.307 625.316 537.016C625.802 537.725 626.567 538.36 627.612 538.92C628.658 539.443 630.058 539.891 631.812 540.264C633.642 540.6 635.303 541.029 636.796 541.552C638.327 542.075 639.54 542.859 640.436 543.904C641.332 544.949 641.78 546.443 641.78 548.384C641.78 549.989 641.37 551.427 640.548 552.696C639.764 553.928 638.626 554.899 637.132 555.608C635.676 556.317 633.922 556.672 631.868 556.672ZM660.181 540.768V538.584H681.293V540.768H660.181ZM700.655 556V554.152C703.417 551.837 706.031 549.541 708.495 547.264C710.996 544.949 713.217 542.653 715.159 540.376C717.1 538.099 718.631 535.84 719.751 533.6C720.871 531.323 721.431 529.101 721.431 526.936C721.431 525.368 721.151 523.949 720.591 522.68C720.031 521.373 719.135 520.328 717.903 519.544C716.671 518.76 714.953 518.368 712.751 518.368C710.66 518.368 708.924 518.835 707.543 519.768C706.199 520.664 705.191 521.84 704.519 523.296C703.884 524.715 703.585 526.264 703.623 527.944H701.103C701.065 525.592 701.532 523.539 702.503 521.784C703.511 519.992 704.892 518.611 706.647 517.64C708.401 516.632 710.436 516.128 712.751 516.128C714.767 516.128 716.615 516.483 718.295 517.192C719.975 517.901 721.337 519.04 722.383 520.608C723.428 522.176 723.951 524.267 723.951 526.88C723.951 528.933 723.521 530.987 722.663 533.04C721.841 535.056 720.721 537.035 719.303 538.976C717.884 540.917 716.316 542.784 714.599 544.576C712.881 546.368 711.145 548.048 709.391 549.616C707.673 551.147 706.049 552.547 704.519 553.816H725.631V556H700.655ZM745.218 556.672C741.858 556.672 738.984 555.832 736.594 554.152C734.242 552.435 732.432 550.064 731.162 547.04C729.893 543.979 729.258 540.432 729.258 536.4C729.258 532.331 729.893 528.784 731.162 525.76C732.432 522.736 734.242 520.384 736.594 518.704C738.984 516.987 741.858 516.128 745.218 516.128C748.578 516.128 751.434 516.987 753.786 518.704C756.176 520.384 757.986 522.755 759.218 525.816C760.488 528.84 761.122 532.368 761.122 536.4C761.122 540.432 760.488 543.979 759.218 547.04C757.986 550.064 756.176 552.435 753.786 554.152C751.434 555.832 748.578 556.672 745.218 556.672ZM745.218 554.376C747.794 554.376 750.09 553.667 752.106 552.248C754.122 550.792 755.69 548.72 756.81 546.032C757.93 543.344 758.49 540.133 758.49 536.4C758.49 532.667 757.93 529.456 756.81 526.768C755.69 524.08 754.122 522.027 752.106 520.608C750.09 519.152 747.794 518.424 745.218 518.424C742.642 518.424 740.346 519.152 738.33 520.608C736.314 522.064 734.728 524.117 733.57 526.768C732.45 529.419 731.89 532.629 731.89 536.4C731.89 540.133 732.469 543.344 733.626 546.032C734.784 548.72 736.352 550.792 738.33 552.248C740.346 553.667 742.642 554.376 745.218 554.376ZM771.091 556V519.712L764.539 521.672V519.88L771.875 516.8H773.611V556H771.091ZM798.838 556V546.592H778.734V544.576L798.334 516.8H801.358V544.352H807.686V546.592H801.358V556H798.838ZM781.59 544.352H798.95V519.712L781.59 544.352Z" fill="#00213D" fill-opacity="0.5"/>
<path d="M176.935 137.353C178.748 137.353 180.333 137.705 181.688 138.407C183.061 139.093 184.114 140.089 184.849 141.396C185.6 142.686 185.976 144.197 185.976 145.929C185.976 147.66 185.6 149.163 184.849 150.437C184.114 151.711 183.061 152.691 181.688 153.377C180.333 154.047 178.748 154.382 176.935 154.382H171.373V137.353H176.935ZM176.935 152.103C178.928 152.103 180.455 151.564 181.517 150.486C182.579 149.408 183.11 147.889 183.11 145.929C183.11 143.952 182.579 142.409 181.517 141.298C180.455 140.187 178.928 139.632 176.935 139.632H174.167V152.103H176.935Z" fill="#0075D6"/>
<path d="M198.765 150.903H191.636L190.41 154.382H187.495L193.596 137.329H196.83L202.931 154.382H199.99L198.765 150.903ZM197.981 148.624L195.213 140.71L192.42 148.624H197.981Z" fill="#0075D6"/>
<path d="M210.949 154.553C209.806 154.553 208.777 154.357 207.862 153.965C206.947 153.557 206.228 152.985 205.706 152.25C205.183 151.515 204.922 150.658 204.922 149.677H207.911C207.976 150.413 208.262 151.017 208.768 151.491C209.291 151.964 210.018 152.201 210.949 152.201C211.913 152.201 212.664 151.972 213.203 151.515C213.742 151.041 214.012 150.437 214.012 149.702C214.012 149.13 213.84 148.665 213.497 148.305C213.17 147.946 212.754 147.668 212.247 147.472C211.757 147.276 211.071 147.064 210.189 146.835C209.079 146.541 208.172 146.247 207.47 145.953C206.784 145.643 206.196 145.169 205.706 144.532C205.216 143.895 204.971 143.046 204.971 141.984C204.971 141.004 205.216 140.147 205.706 139.411C206.196 138.676 206.882 138.113 207.764 137.721C208.646 137.329 209.667 137.133 210.826 137.133C212.476 137.133 213.824 137.549 214.869 138.382C215.931 139.199 216.519 140.326 216.633 141.764H213.546C213.497 141.143 213.203 140.612 212.664 140.171C212.125 139.73 211.414 139.509 210.532 139.509C209.732 139.509 209.079 139.714 208.572 140.122C208.066 140.53 207.813 141.118 207.813 141.886C207.813 142.409 207.968 142.842 208.278 143.185C208.605 143.511 209.013 143.773 209.503 143.969C209.993 144.165 210.663 144.377 211.512 144.606C212.64 144.916 213.554 145.226 214.257 145.537C214.975 145.847 215.58 146.329 216.07 146.982C216.576 147.619 216.829 148.477 216.829 149.555C216.829 150.421 216.592 151.237 216.119 152.005C215.661 152.773 214.983 153.393 214.085 153.867C213.203 154.325 212.158 154.553 210.949 154.553Z" fill="#0075D6"/>
<path d="M233.478 137.353V154.382H230.685V146.933H222.673V154.382H219.88V137.353H222.673V144.655H230.685V137.353H233.478Z" fill="#0075D6"/>
<path d="M246.025 145.635C246.939 145.798 247.715 146.28 248.352 147.08C248.989 147.881 249.308 148.787 249.308 149.8C249.308 150.666 249.079 151.45 248.622 152.152C248.181 152.838 247.536 153.385 246.686 153.794C245.837 154.186 244.849 154.382 243.722 154.382H236.91V137.353H243.403C244.563 137.353 245.559 137.549 246.392 137.941C247.225 138.333 247.854 138.864 248.279 139.534C248.703 140.187 248.916 140.922 248.916 141.739C248.916 142.719 248.654 143.536 248.132 144.189C247.609 144.843 246.907 145.324 246.025 145.635ZM239.703 144.508H243.158C244.073 144.508 244.783 144.304 245.29 143.895C245.812 143.471 246.074 142.866 246.074 142.082C246.074 141.314 245.812 140.718 245.29 140.294C244.783 139.853 244.073 139.632 243.158 139.632H239.703V144.508ZM243.476 152.103C244.424 152.103 245.167 151.874 245.706 151.417C246.245 150.96 246.515 150.323 246.515 149.506C246.515 148.673 246.229 148.011 245.657 147.521C245.085 147.031 244.326 146.786 243.378 146.786H239.703V152.103H243.476Z" fill="#0075D6"/>
<path d="M259.865 154.553C258.28 154.553 256.819 154.186 255.479 153.451C254.156 152.699 253.103 151.662 252.319 150.339C251.551 149 251.167 147.497 251.167 145.831C251.167 144.165 251.551 142.67 252.319 141.347C253.103 140.024 254.156 138.995 255.479 138.26C256.819 137.509 258.28 137.133 259.865 137.133C261.466 137.133 262.928 137.509 264.251 138.26C265.59 138.995 266.644 140.024 267.411 141.347C268.179 142.67 268.563 144.165 268.563 145.831C268.563 147.497 268.179 149 267.411 150.339C266.644 151.662 265.59 152.699 264.251 153.451C262.928 154.186 261.466 154.553 259.865 154.553ZM259.865 152.128C260.992 152.128 261.996 151.874 262.879 151.368C263.761 150.845 264.447 150.11 264.937 149.163C265.443 148.199 265.696 147.089 265.696 145.831C265.696 144.573 265.443 143.471 264.937 142.523C264.447 141.576 263.761 140.849 262.879 140.343C261.996 139.836 260.992 139.583 259.865 139.583C258.738 139.583 257.733 139.836 256.851 140.343C255.969 140.849 255.275 141.576 254.769 142.523C254.279 143.471 254.034 144.573 254.034 145.831C254.034 147.089 254.279 148.199 254.769 149.163C255.275 150.11 255.969 150.845 256.851 151.368C257.733 151.874 258.738 152.128 259.865 152.128Z" fill="#0075D6"/>
<path d="M281.332 150.903H274.202L272.977 154.382H270.062L276.163 137.329H279.397L285.497 154.382H282.557L281.332 150.903ZM280.548 148.624L277.78 140.71L274.986 148.624H280.548Z" fill="#0075D6"/>
<path d="M296.75 154.382L292.83 147.57H290.698V154.382H287.905V137.353H293.785C295.092 137.353 296.195 137.582 297.093 138.039C298.008 138.497 298.686 139.109 299.127 139.877C299.584 140.645 299.813 141.502 299.813 142.45C299.813 143.56 299.486 144.573 298.833 145.488C298.196 146.386 297.207 146.999 295.868 147.325L300.082 154.382H296.75ZM290.698 145.341H293.785C294.831 145.341 295.615 145.079 296.137 144.557C296.677 144.034 296.946 143.332 296.946 142.45C296.946 141.568 296.685 140.882 296.162 140.392C295.639 139.885 294.847 139.632 293.785 139.632H290.698V145.341Z" fill="#0075D6"/>
<path d="M308.703 137.353C310.516 137.353 312.1 137.705 313.456 138.407C314.828 139.093 315.881 140.089 316.616 141.396C317.368 142.686 317.743 144.197 317.743 145.929C317.743 147.66 317.368 149.163 316.616 150.437C315.881 151.711 314.828 152.691 313.456 153.377C312.1 154.047 310.516 154.382 308.703 154.382H303.141V137.353H308.703ZM308.703 152.103C310.695 152.103 312.223 151.564 313.284 150.486C314.346 149.408 314.877 147.889 314.877 145.929C314.877 143.952 314.346 142.409 313.284 141.298C312.223 140.187 310.695 139.632 308.703 139.632H305.934V152.103H308.703Z" fill="#0075D6"/>
<path d="M179.915 118.79H191.806V125.797H170.837V88.5309H179.915V118.79Z" fill="#0075D6"/>
<path d="M205.054 88.5309V110.827C205.054 113.056 205.603 114.773 206.7 115.976C207.797 117.179 209.407 117.781 211.531 117.781C213.654 117.781 215.282 117.179 216.415 115.976C217.547 114.773 218.113 113.056 218.113 110.827V88.5309H227.191V110.774C227.191 114.101 226.483 116.914 225.068 119.214C223.652 121.515 221.741 123.249 219.334 124.417C216.963 125.585 214.309 126.169 211.371 126.169C208.434 126.169 205.797 125.602 203.462 124.47C201.161 123.302 199.339 121.568 197.994 119.268C196.649 116.932 195.977 114.101 195.977 110.774V88.5309H205.054Z" fill="#0075D6"/>
<path d="M242.643 88.5309V125.797H233.565V88.5309H242.643Z" fill="#0075D6"/>
<path d="M262.705 126.169C259.98 126.169 257.538 125.726 255.38 124.842C253.221 123.957 251.487 122.647 250.177 120.913C248.903 119.179 248.231 117.091 248.16 114.649H257.822C257.963 116.029 258.441 117.091 259.255 117.834C260.069 118.542 261.131 118.896 262.44 118.896C263.785 118.896 264.847 118.595 265.625 117.993C266.404 117.356 266.793 116.489 266.793 115.392C266.793 114.472 266.474 113.711 265.837 113.11C265.236 112.508 264.475 112.012 263.555 111.623C262.67 111.234 261.396 110.792 259.733 110.296C257.326 109.553 255.362 108.81 253.84 108.066C252.318 107.323 251.009 106.226 249.912 104.775C248.815 103.324 248.266 101.431 248.266 99.0949C248.266 95.6267 249.522 92.9193 252.035 90.9728C254.548 88.9909 257.822 88 261.856 88C265.961 88 269.27 88.9909 271.783 90.9728C274.296 92.9193 275.641 95.6444 275.818 99.148H265.997C265.926 97.9447 265.484 97.0069 264.67 96.3345C263.856 95.6267 262.812 95.2728 261.538 95.2728C260.44 95.2728 259.556 95.5736 258.883 96.1752C258.211 96.7415 257.875 97.5731 257.875 98.6702C257.875 99.8735 258.441 100.811 259.573 101.484C260.706 102.156 262.475 102.882 264.882 103.66C267.288 104.474 269.235 105.253 270.721 105.996C272.243 106.739 273.553 107.819 274.65 109.234C275.747 110.65 276.295 112.473 276.295 114.702C276.295 116.826 275.747 118.754 274.65 120.489C273.588 122.223 272.031 123.603 269.978 124.629C267.926 125.656 265.501 126.169 262.705 126.169Z" fill="#0075D6"/>
<path d="M305.08 119.214H291.172L288.942 125.797H279.44L292.924 88.5309H303.435L316.918 125.797H307.31L305.08 119.214ZM302.745 112.207L298.126 98.5641L293.561 112.207H302.745Z" fill="#0075D6"/>
<path d="M132.885 120.963C134.997 120.963 136.641 120.386 137.818 119.231C138.994 118.077 139.582 116.444 139.582 114.331C139.582 112.219 138.994 110.574 137.818 109.398C136.641 108.222 134.997 107.634 132.885 107.634H130.238V120.963H132.885Z" fill="#0075D6"/>
<path fill-rule="evenodd" clip-rule="evenodd" d="M106.292 89.0458C98.3989 89.0458 92 95.4447 92 103.338V140.09C92 147.983 98.3989 154.382 106.292 154.382H145.086C152.979 154.382 159.378 147.983 159.378 140.09V103.338C159.378 95.4447 152.979 89.0458 145.086 89.0458H106.292ZM134.637 133.083H122.745V102.824H113.668V140.09H134.637V133.083ZM133.244 102.865C135.661 102.865 137.774 103.344 139.582 104.302C141.389 105.26 142.783 106.611 143.763 108.353C144.765 110.073 145.266 112.066 145.266 114.331C145.266 116.574 144.765 118.567 143.763 120.309C142.783 122.052 141.378 123.402 139.549 124.36C137.741 125.319 135.64 125.798 133.244 125.798H124.652V102.865H133.244ZM102.209 107.932H112.418V102.828H102.209V107.932Z" fill="#0075D6"/>
</g>
<defs>
<clipPath id="clip0_33_11">
<rect width="1920" height="1080" fill="white"/>
</clipPath>
</defs>
</svg>
